<svg id="Icons" height="512" viewBox="0 0 74 74" width="512" xmlns="http://www.w3.org/2000/svg" fill="white"><path d="m71 60h-51.034a7.639 7.639 0 0 1 0-15.278h44.194a1 1 0 0 1 .889.542l6.84 13.278a1 1 0 0 1 -.889 1.458zm-51.034-13.282a5.639 5.639 0 0 0 0 11.278h49.394l-5.81-11.278z"/><path d="m19.966 60a7.639 7.639 0 1 1 7.639-7.639 7.647 7.647 0 0 1 -7.639 7.639zm0-13.278a5.639 5.639 0 1 0 5.639 5.639 5.645 5.645 0 0 0 -5.639-5.643z"/><path d="m19.966 56.6a4.241 4.241 0 1 1 4.242-4.241 4.246 4.246 0 0 1 -4.242 4.241zm0-6.482a2.241 2.241 0 1 0 2.242 2.241 2.243 2.243 0 0 0 -2.242-2.243z"/><path d="m55.732 56.6a4.241 4.241 0 1 1 4.242-4.241 4.246 4.246 0 0 1 -4.242 4.241zm0-6.482a2.241 2.241 0 1 0 2.242 2.241 2.244 2.244 0 0 0 -2.242-2.243z"/><path d="m55.732 60a7.639 7.639 0 1 1 7.64-7.639 7.648 7.648 0 0 1 -7.64 7.639zm0-13.278a5.639 5.639 0 1 0 5.64 5.639 5.646 5.646 0 0 0 -5.64-5.643z"/><path d="m57.454 46.718h-29.172a1 1 0 0 1 -1-1v-6.606a4.28 4.28 0 0 1 4.275-4.275h22.622a4.28 4.28 0 0 1 4.275 4.275v6.606a1 1 0 0 1 -1 1zm-28.172-2h27.172v-5.606a2.278 2.278 0 0 0 -2.275-2.275h-22.622a2.278 2.278 0 0 0 -2.275 2.275z"/><path d="m47.964 36.837h-10.193a1 1 0 0 1 -1-1v-3.1a2.73 2.73 0 0 1 2.729-2.728h6.74a2.729 2.729 0 0 1 2.726 2.727v3.1a1 1 0 0 1 -1.002 1.001zm-9.193-2h8.193v-2.1a.727.727 0 0 0 -.726-.727h-6.738a.728.728 0 0 0 -.727.727z"/><path d="m25.176 46.718a1 1 0 0 1 -.895-.551l-12.318-24.506a.687.687 0 0 0 -.617-.382h-5.708a3.638 3.638 0 1 1 0-7.275h9.185a2.506 2.506 0 0 1 2.23 1.354l12.116 23.293a1 1 0 1 1 -1.774.923l-12.117-23.293a.511.511 0 0 0 -.455-.281h-9.185a1.638 1.638 0 1 0 0 3.275h5.708a2.678 2.678 0 0 1 2.4 1.483l12.322 24.511a1 1 0 0 1 -.444 1.342.987.987 0 0 1 -.448.107z"/></svg>